<?xml version="1.0" encoding="utf-8" ?>
<svg xmlns="http://www.w3.org/2000/svg" xmlns:xlink="http://www.w3.org/1999/xlink" width="200" height="489">
	<path fill="white" transform="translate(88.0598 0)" d="M0 244C0 326.79016 4.3248615 408.24728 12.686553 488C21.046047 408.24728 25.373106 326.79016 25.373106 244C25.373106 161.20769 21.046047 79.752716 12.686553 0C4.3248615 79.752716 0 161.20769 0 244" fill-rule="evenodd"/>
	<path fill="white" transform="translate(-6.10352e-05 133.902)" d="M39.014366 144.51593C38.37751 136.12698 37.64135 127.72302 36.760548 119.29762C32.488224 78.527702 25.452599 38.709663 15.863079 0C14.503016 39.839481 15.873873 80.244942 20.144037 121.01486C21.838718 137.17104 23.971642 153.17929 26.516903 169.0289C18.73864 143.60265 9.8809624 118.76595 0 94.55954C4.4061708 134.1825 11.597232 173.97266 21.711348 213.71352C31.823305 253.45439 44.534492 291.85962 59.613918 328.80487C56.185696 297.97394 51.069271 267.03793 44.206352 236.10835C42.459858 228.24895 41.522926 220.2373 41.538036 212.19138C41.540195 211.50319 41.540195 210.81502 41.538036 210.12683C41.516449 198.08044 42.792316 186.07693 44.970577 174.22778C51.993248 136.03908 57.381687 98.090492 61.19418 60.525654C53.005741 87.965004 45.650608 116.01536 39.014366 144.51593" fill-rule="evenodd"/>
	<path fill="white" transform="translate(138.806 133.902)" d="M34.677155 169.0278C37.224564 153.1783 39.357479 137.17229 41.049995 121.01407C45.322304 80.244415 46.690998 39.841366 45.33094 0C35.743614 38.709412 28.708014 78.529335 24.435705 119.29899C23.552746 127.72218 22.818747 136.12608 22.184053 144.51498C15.545676 116.0146 8.192729 87.966576 0 60.527401C3.8146381 98.091995 9.2030573 136.03819 16.223547 174.2245C18.401798 186.07571 19.677662 198.07915 19.656073 210.12332C19.653913 210.81364 19.653913 211.50182 19.656073 212.19214C19.671185 220.23802 18.734257 228.2496 16.989927 236.10681C10.124874 267.03833 5.0106254 297.97412 1.5824164 328.80487C16.659628 291.85986 29.372931 253.45273 39.487011 213.71428C49.59893 173.97366 56.787807 134.18161 61.193962 94.558922C51.315193 118.76517 42.45755 143.6017 34.677155 169.0278" fill-rule="evenodd"/>
</svg>
